# xmcd
#
# Track frame offsets:
#	187
#	20957
#	47655
#	50490
#	138257
#	167447
#	239240
#
# Disc length: 3821 seconds
#
# Revision: 1
# Processed by: cddbd v1.5.1PL2 Copyright (c) Steve Scherf et al.
# Submitted via: audiograbber 1.82.01
#
DISCID=600eeb07
DTITLE=Stoneholl, Randy - I thirst for you (Promotional CD)
DYEAR=1900
DGENRE=
TTITLE0=I thirst for you (Radio Edit)
TTITLE1=I thirst for you
TTITLE2=I thirst for you (Radio Special Promo)
TTITLE3=Segment 1 National Spot "will continue"
TTITLE4=Segment 2 National Spot "Charlie the Weatherman"
TTITLE5=Segment 3 National Spot "will continue"
TTITLE6=Segment 4 National Spot "cassette and compact discs"
EXTD=
EXTT0=
EXTT1=
EXTT2=
EXTT3=
EXTT4=
EXTT5=
EXTT6=
PLAYORDER=
